<?xml version="1.0" encoding="UTF-8" standalone="no"?>
<svg
   xmlns:dc="http://purl.org/dc/elements/1.1/"
   xmlns:cc="http://creativecommons.org/ns#"
   xmlns:rdf="http://www.w3.org/1999/02/22-rdf-syntax-ns#"
   xmlns:svg="http://www.w3.org/2000/svg"
   xmlns="http://www.w3.org/2000/svg"
   xmlns:sodipodi="http://sodipodi.sourceforge.net/DTD/sodipodi-0.dtd"
   xmlns:inkscape="http://www.inkscape.org/namespaces/inkscape"
   height="60"
   viewBox="0 0 60 60"
   width="60"
   version="1.1"
   id="svg174"
   sodipodi:docname="photo-cam-logo.svg"
   inkscape:version="1.0.2 (e86c870879, 2021-01-15, custom)">
  <metadata
     id="metadata180">
    <rdf:RDF>
      <cc:Work
         rdf:about="">
        <dc:format>image/svg+xml</dc:format>
        <dc:type
           rdf:resource="http://purl.org/dc/dcmitype/StillImage" />
        <dc:title></dc:title>
      </cc:Work>
    </rdf:RDF>
  </metadata>
  <defs
     id="defs178" />
  <sodipodi:namedview
     pagecolor="#ffffff"
     bordercolor="#666666"
     borderopacity="1"
     objecttolerance="10"
     gridtolerance="10"
     guidetolerance="10"
     inkscape:pageopacity="0"
     inkscape:pageshadow="2"
     inkscape:window-width="2350"
     inkscape:window-height="1561"
     id="namedview176"
     showgrid="false"
     inkscape:zoom="16.8"
     inkscape:cx="30"
     inkscape:cy="30"
     inkscape:window-x="1171"
     inkscape:window-y="0"
     inkscape:window-maximized="0"
     inkscape:current-layer="svg174" />
  <g
     id="g172">
    <rect
       fill="none"
       height="60"
       width="60"
       id="rect2" />
    <g
       id="g168">
      <linearGradient
         gradientTransform="matrix(1 0 0 -1 102.52 38.9805)"
         gradientUnits="userSpaceOnUse"
         id="SVGID_1_"
         x1="-95.8955"
         x2="-86.1685"
         y1="26.209"
         y2="26.209">
        <stop
           offset="0"
           style="stop-color:#F0F0F0"
           id="stop4" />
        <stop
           offset="0.4788"
           style="stop-color:#7E8182"
           id="stop6" />
        <stop
           offset="1"
           style="stop-color:#E6E6E6"
           id="stop8" />
      </linearGradient>
      <path
         d="M16.419,15.417v-3.748c0-0.885-0.653-1.544-1.453-1.544H8.124c-0.799,0-1.456,0.659-1.456,1.544   v3.748H16.419z"
         fill="url(#SVGID_1_)"
         id="path11" />
      <radialGradient
         cx="-92.3433"
         cy="12.1729"
         gradientTransform="matrix(0.931 0 0 -0.9385 97.5175 22.6984)"
         gradientUnits="userSpaceOnUse"
         id="SVGID_2_"
         r="3.803">
        <stop
           offset="0"
           style="stop-color:#F2F2F2"
           id="stop13" />
        <stop
           offset="1"
           style="stop-color:#D9D9D9"
           id="stop15" />
      </radialGradient>
      <path
         d="M14.967,10.125H8.124c-0.799,0-1.456,0.659-1.456,1.544v0.756c0-0.885,0.657-1.544,1.456-1.544   h6.843c0.8,0,1.453,0.659,1.453,1.544v-0.756C16.419,10.785,15.766,10.125,14.967,10.125z"
         fill="url(#SVGID_2_)"
         id="path18" />
      <linearGradient
         gradientTransform="matrix(1 0 0 -1 102.52 38.9805)"
         gradientUnits="userSpaceOnUse"
         id="SVGID_3_"
         x1="-72.52"
         x2="-72.52"
         y1="28.4741"
         y2="-10.9595">
        <stop
           offset="0"
           style="stop-color:#D2D3D2"
           id="stop20" />
        <stop
           offset="0.1212"
           style="stop-color:#D2D3D2"
           id="stop22" />
        <stop
           offset="0.4182"
           style="stop-color:#B2B6B5"
           id="stop24" />
        <stop
           offset="0.4182"
           style="stop-color:#A2A5A5"
           id="stop26" />
        <stop
           offset="0.6606"
           style="stop-color:#808485"
           id="stop28" />
        <stop
           offset="0.9697"
           style="stop-color:#AFB3B2"
           id="stop30" />
        <stop
           offset="0.9697"
           style="stop-color:#5B5B5D"
           id="stop32" />
        <stop
           offset="1"
           style="stop-color:#AFB3B2"
           id="stop34" />
        <stop
           offset="1"
           style="stop-color:#5B5B5D"
           id="stop36" />
      </linearGradient>
      <path
         d="M55.499,10.563H20.561c-0.824,0-1.499,0.687-1.499,1.528v1.896H4.5C3.676,13.986,3,14.674,3,15.514   v32.833c0,0.841,0.676,1.528,1.499,1.528h51c0.824,0,1.501-0.688,1.501-1.528V12.09C57,11.248,56.323,10.563,55.499,10.563z"
         fill="url(#SVGID_3_)"
         id="path39" />
      <linearGradient
         gradientTransform="matrix(1 0 0 -1 102.52 38.9805)"
         gradientUnits="userSpaceOnUse"
         id="SVGID_4_"
         x1="-53.6201"
         x2="-53.6201"
         y1="25.9531"
         y2="19.4839">
        <stop
           offset="0"
           style="stop-color:#808080"
           id="stop41" />
        <stop
           offset="1"
           style="stop-color:#E6E6E6"
           id="stop43" />
      </linearGradient>
      <polygon
         fill="url(#SVGID_4_)"
         points="53.955,19.492 43.843,19.491 43.847,12.998 53.957,12.999  "
         id="polygon46" />
      <linearGradient
         gradientTransform="matrix(1 0 0 -1 102.52 38.9805)"
         gradientUnits="userSpaceOnUse"
         id="SVGID_5_"
         x1="-53.6196"
         x2="-53.6196"
         y1="20.0713"
         y2="25.4231">
        <stop
           offset="0"
           style="stop-color:#000000"
           id="stop48" />
        <stop
           offset="1"
           style="stop-color:#3B3B3B"
           id="stop50" />
      </linearGradient>
      <rect
         fill="url(#SVGID_5_)"
         height="5.401"
         width="8.838"
         x="44.481"
         y="13.544"
         id="rect53" />
      <path
         d="M45.764,31.913c-0.004,8.315-6.746,16.519-15.062,16.514   c-8.314-0.003-15.053-8.207-15.053-16.522c0.004-8.318,6.746-15.053,15.063-15.052C39.028,16.856,45.766,23.597,45.764,31.913z"
         fill="#222021"
         fill-opacity="0.5"
         stroke-opacity="0.5"
         id="path55" />
      <linearGradient
         gradientTransform="matrix(1 0 0 -1 102.52 38.9805)"
         gradientUnits="userSpaceOnUse"
         id="SVGID_6_"
         x1="-71.814"
         x2="-71.814"
         y1="22.7822"
         y2="-7.386">
        <stop
           offset="0"
           style="stop-color:#CFCFCF"
           id="stop57" />
        <stop
           offset="0.1091"
           style="stop-color:#CFCFCF"
           id="stop59" />
        <stop
           offset="0.6848"
           style="stop-color:#121212"
           id="stop61" />
        <stop
           offset="1"
           style="stop-color:#A6A6A6"
           id="stop63" />
      </linearGradient>
      <path
         d="M45.706,31.304c-0.001,8.285-6.718,14.998-15.004,14.994c-8.283-0.002-14.997-6.721-14.996-15.003   c0.004-8.286,6.722-14.998,15.007-14.996C38.996,16.304,45.708,23.02,45.706,31.304z"
         fill="url(#SVGID_6_)"
         id="path66" />
      <linearGradient
         gradientTransform="matrix(1 0 0 -1 102.52 38.9805)"
         gradientUnits="userSpaceOnUse"
         id="SVGID_7_"
         x1="-71.813"
         x2="-71.813"
         y1="22.1294"
         y2="-6.4378">
        <stop
           offset="0"
           style="stop-color:#F2F2F2"
           id="stop68" />
        <stop
           offset="1"
           style="stop-color:#636566"
           id="stop70" />
      </linearGradient>
      <path
         d="M44.956,31.308c-0.003,7.868-6.385,14.245-14.254,14.241c-7.874-0.003-14.252-6.382-14.245-14.254   c0-7.87,6.381-14.248,14.253-14.246C38.583,17.054,44.96,23.437,44.956,31.308z"
         fill="url(#SVGID_7_)"
         id="path73" />
      <linearGradient
         gradientTransform="matrix(1 3.000000e-004 3.000000e-004 -1 101.8093 38.1828)"
         gradientUnits="userSpaceOnUse"
         id="SVGID_8_"
         x1="-79.3252"
         x2="-62.8855"
         y1="15.0825"
         y2="-1.3573">
        <stop
           offset="0"
           style="stop-color:#1A1A1A"
           id="stop75" />
        <stop
           offset="0.503"
           style="stop-color:#343434"
           id="stop77" />
        <stop
           offset="0.7515"
           style="stop-color:#9E9E9E"
           id="stop79" />
        <stop
           offset="1"
           style="stop-color:#CFCFCF"
           id="stop81" />
      </linearGradient>
      <path
         d="M42.332,31.304c-0.003,6.42-5.213,11.621-11.63,11.62c-6.42-0.001-11.623-5.209-11.62-11.627   c0.002-6.423,5.208-11.626,11.624-11.623C37.13,19.677,42.332,24.881,42.332,31.304z"
         fill="url(#SVGID_8_)"
         id="path84" />
      <radialGradient
         cx="-71.3799"
         cy="23.7412"
         gradientTransform="matrix(0.9226 2.793056e-004 2.793056e-004 -0.9226 97.7313 54.1515)"
         gradientUnits="userSpaceOnUse"
         id="SVGID_9_"
         r="13.5274">
        <stop
           offset="0"
           style="stop-color:#000000"
           id="stop86" />
        <stop
           offset="0.5917"
           style="stop-color:#000000"
           id="stop88" />
        <stop
           offset="0.627"
           style="stop-color:#050505"
           id="stop90" />
        <stop
           offset="0.7652"
           style="stop-color:#121212"
           id="stop92" />
        <stop
           offset="0.8876"
           style="stop-color:#171717"
           id="stop94" />
        <stop
           offset="1"
           style="stop-color:#171717"
           id="stop96" />
      </radialGradient>
      <circle
         cx="30.706"
         cy="31.3"
         fill="url(#SVGID_9_)"
         r="10.874"
         id="circle99" />
      <radialGradient
         cx="-77.2124"
         cy="16.4063"
         gradientTransform="matrix(0.9306 0 0 -0.9306 97.6075 39.1861)"
         gradientUnits="userSpaceOnUse"
         id="SVGID_10_"
         r="21.5485">
        <stop
           offset="0"
           style="stop-color:#242424"
           id="stop101" />
        <stop
           offset="0.4303"
           style="stop-color:#242424"
           id="stop103" />
        <stop
           offset="0.7818"
           style="stop-color:#000000"
           id="stop105" />
        <stop
           offset="1"
           style="stop-color:#000000"
           id="stop107" />
      </radialGradient>
      <circle
         cx="30.706"
         cy="31.299"
         fill="url(#SVGID_10_)"
         r="9"
         id="circle110" />
      <radialGradient
         cx="-77.0063"
         cy="63.8779"
         gradientTransform="matrix(0.911 2.793056e-004 2.793056e-004 -0.9111 98.5755 77.6866)"
         gradientUnits="userSpaceOnUse"
         id="SVGID_11_"
         r="23.6394">
        <stop
           offset="0"
           style="stop-color:#8D4AAB"
           id="stop112" />
        <stop
           offset="0.3091"
           style="stop-color:#8D4AAB"
           id="stop114" />
        <stop
           offset="0.4364"
           style="stop-color:#532961"
           id="stop116" />
        <stop
           offset="0.8061"
           style="stop-color:#070F0F"
           id="stop118" />
        <stop
           offset="1"
           style="stop-color:#070F0F"
           id="stop120" />
      </radialGradient>
      <path
         d="M38.581,31.3c-0.001,4.35-3.529,7.876-7.879,7.874c-4.345-0.002-7.872-3.529-7.872-7.877   c0.005-4.351,3.531-7.872,7.875-7.872C35.059,23.427,38.583,26.952,38.581,31.3z"
         fill="url(#SVGID_11_)"
         id="path123" />
      <radialGradient
         cx="-74.5239"
         cy="146.7813"
         gradientTransform="matrix(0.911 2.793056e-004 2.793056e-004 -0.8674 98.575 165.1664)"
         gradientUnits="userSpaceOnUse"
         id="SVGID_12_"
         r="9.5976">
        <stop
           offset="0"
           style="stop-color:#264932"
           id="stop125" />
        <stop
           offset="0.7879"
           style="stop-color:#000000"
           id="stop127" />
        <stop
           offset="1"
           style="stop-color:#000000"
           id="stop129" />
      </radialGradient>
      <path
         d="M38.581,31.575c-0.001,4.14-3.529,7.498-7.879,7.496c-4.345-0.001-7.872-3.36-7.872-7.5   c0,0,2.698,4.573,7.872,4.573C35.879,36.146,38.581,31.575,38.581,31.575z"
         fill="url(#SVGID_12_)"
         id="path132" />
      <linearGradient
         gradientTransform="matrix(1 0 0 -1 102.52 38.9805)"
         gradientUnits="userSpaceOnUse"
         id="SVGID_13_"
         x1="-90.6953"
         x2="-90.6953"
         y1="20.1304"
         y2="14.8813">
        <stop
           offset="0"
           style="stop-color:#808080"
           id="stop134" />
        <stop
           offset="1"
           style="stop-color:#E6E6E6"
           id="stop136" />
      </linearGradient>
      <circle
         cx="11.825"
         cy="21.428"
         fill="url(#SVGID_13_)"
         r="2.625"
         id="circle139" />
      <linearGradient
         gradientTransform="matrix(1 0 0 -1 102.52 38.9805)"
         gradientUnits="userSpaceOnUse"
         id="SVGID_14_"
         x1="-90.6958"
         x2="-90.6958"
         y1="15.1157"
         y2="19.8095">
        <stop
           offset="0"
           style="stop-color:#000000"
           id="stop141" />
        <stop
           offset="1"
           style="stop-color:#3B3B3B"
           id="stop143" />
      </linearGradient>
      <circle
         cx="11.824"
         cy="21.428"
         fill="url(#SVGID_14_)"
         r="2.25"
         id="circle146" />
      <path
         d="M11.825,21.659c0.774,0,1.459-0.348,1.931-0.889   c-0.285-0.796-1.038-1.37-1.931-1.37c-0.894,0-1.647,0.573-1.933,1.37C10.364,21.311,11.05,21.659,11.825,21.659z"
         fill="#FFFFFF"
         fill-opacity="0.25"
         stroke-opacity="0.25"
         id="path148" />
      <polygon
         fill="#F1F2F2"
         fill-opacity="0.2"
         points="44.699,15.053 53.168,15.085 53.168,13.772    44.699,13.772  "
         stroke-opacity="0.2"
         id="polygon150" />
      <linearGradient
         gradientTransform="matrix(1 0 0 -1 102.52 38.9805)"
         gradientUnits="userSpaceOnUse"
         id="SVGID_15_"
         x1="-71.854"
         x2="-71.854"
         y1="17.3643"
         y2="7.7548">
        <stop
           offset="0"
           style="stop-color:#FAFDFB"
           id="stop152" />
        <stop
           offset="1"
           style="stop-color:#808080"
           id="stop154" />
      </linearGradient>
      <path
         d="M30.668,31.179c3.489,0,6.777-0.529,9.679-1.461   c-0.823-4.604-4.839-8.102-9.679-8.102c-4.843,0-8.856,3.498-9.682,8.101C23.889,30.649,27.178,31.179,30.668,31.179z"
         fill="url(#SVGID_15_)"
         fill-opacity="0.35"
         stroke-opacity="0.35"
         id="path157" />
      <linearGradient
         gradientTransform="matrix(1 0 0 -1 102.52 38.9805)"
         gradientUnits="userSpaceOnUse"
         id="SVGID_16_"
         x1="-72.52"
         x2="-72.52"
         y1="28.5479"
         y2="-10.8621">
        <stop
           offset="0"
           style="stop-color:#F2F2F2"
           id="stop159" />
        <stop
           offset="0.3212"
           style="stop-color:#E6E6E6"
           id="stop161" />
        <stop
           offset="1"
           style="stop-color:#666666"
           id="stop163" />
      </linearGradient>
      <path
         d="M55.499,10.563H20.561c-0.824,0-1.499,0.687-1.499,1.528v1.896H4.5C3.676,13.986,3,14.674,3,15.514   v32.833c0,0.841,0.676,1.528,1.499,1.528c0,0-0.749-0.414-0.749-1.528V15.514c0-0.426,0.337-0.772,0.749-0.772h14.564h0.749v-0.756   v-1.897c0-0.426,0.337-0.772,0.75-0.772h34.939c0.413,0,0.749,0.346,0.749,0.772v36.256c0,1.208-0.749,1.527-0.749,1.527   c0.824,0,1.499-0.688,1.499-1.527V12.09C57,11.248,56.323,10.563,55.499,10.563z"
         fill="url(#SVGID_16_)"
         id="path166" />
    </g>
    <rect
       fill="none"
       height="60"
       width="60"
       id="rect170" />
  </g>
</svg>
